<svg xmlns="http://www.w3.org/2000/svg" xmlns:xlink="http://www.w3.org/1999/xlink" width="50" zoomAndPan="magnify" viewBox="0 0 37.5 37.499999" height="50" preserveAspectRatio="xMidYMid meet" version="1.0"><defs><clipPath id="a1d4d30e78"><path d="M 1.582031 22.265625 L 21.503906 22.265625 L 21.503906 34.710938 L 1.582031 34.710938 Z M 1.582031 22.265625 " clip-rule="nonzero"/></clipPath><clipPath id="557cf88810"><path d="M 9.65625 2.144531 L 35.386719 2.144531 L 35.386719 32.996094 L 9.65625 32.996094 Z M 9.65625 2.144531 " clip-rule="nonzero"/></clipPath></defs><g clip-path="url(#a1d4d30e78)"><path fill="#000000" d="M 19.753906 25.949219 L 7.339844 25.949219 L 6.394531 23 C 6.257812 22.566406 5.855469 22.273438 5.398438 22.273438 L 2.625 22.273438 C 2.050781 22.273438 1.582031 22.738281 1.582031 23.316406 C 1.582031 23.890625 2.050781 24.355469 2.625 24.355469 L 4.605469 24.355469 L 6.496094 32.898438 C 6.703125 33.957031 7.632812 34.71875 8.714844 34.71875 L 16.933594 34.71875 C 17.546875 34.71875 18.101562 34.371094 18.367188 33.820312 L 21.191406 28.222656 C 21.699219 27.167969 20.929688 25.949219 19.753906 25.949219 " fill-opacity="1" fill-rule="nonzero"/></g><path fill="#000000" d="M 21.050781 12.234375 L 29.492188 12.234375 C 30.183594 12.234375 30.746094 11.675781 30.746094 10.984375 C 30.746094 10.296875 30.183594 9.738281 29.492188 9.738281 L 21.050781 9.738281 C 20.359375 9.738281 19.796875 10.296875 19.796875 10.984375 C 19.796875 11.675781 20.359375 12.234375 21.050781 12.234375 " fill-opacity="1" fill-rule="nonzero"/><path fill="#000000" d="M 15.863281 12.449219 C 16.675781 12.449219 17.332031 11.792969 17.332031 10.984375 C 17.332031 10.175781 16.675781 9.519531 15.863281 9.519531 C 15.050781 9.519531 14.394531 10.175781 14.394531 10.984375 C 14.394531 11.792969 15.050781 12.449219 15.863281 12.449219 " fill-opacity="1" fill-rule="nonzero"/><path fill="#000000" d="M 21.050781 22.71875 L 29.492188 22.71875 C 30.183594 22.71875 30.746094 22.160156 30.746094 21.472656 C 30.746094 20.78125 30.183594 20.222656 29.492188 20.222656 L 21.050781 20.222656 C 20.359375 20.222656 19.796875 20.78125 19.796875 21.472656 C 19.796875 22.160156 20.359375 22.71875 21.050781 22.71875 " fill-opacity="1" fill-rule="nonzero"/><path fill="#000000" d="M 15.863281 22.933594 C 16.675781 22.933594 17.332031 22.28125 17.332031 21.472656 C 17.332031 20.660156 16.675781 20.007812 15.863281 20.007812 C 15.050781 20.007812 14.394531 20.660156 14.394531 21.472656 C 14.394531 22.28125 15.050781 22.933594 15.863281 22.933594 " fill-opacity="1" fill-rule="nonzero"/><path fill="#000000" d="M 19.796875 16.230469 C 19.796875 16.917969 20.359375 17.476562 21.050781 17.476562 L 29.492188 17.476562 C 30.183594 17.476562 30.746094 16.917969 30.746094 16.230469 C 30.746094 15.539062 30.183594 14.980469 29.492188 14.980469 L 21.050781 14.980469 C 20.359375 14.980469 19.796875 15.539062 19.796875 16.230469 " fill-opacity="1" fill-rule="nonzero"/><path fill="#000000" d="M 15.863281 17.691406 C 16.675781 17.691406 17.332031 17.035156 17.332031 16.230469 C 17.332031 15.417969 16.675781 14.765625 15.863281 14.765625 C 15.050781 14.765625 14.394531 15.417969 14.394531 16.230469 C 14.394531 17.035156 15.050781 17.691406 15.863281 17.691406 " fill-opacity="1" fill-rule="nonzero"/><g clip-path="url(#557cf88810)"><path fill="#000000" d="M 34.675781 2.234375 C 34.242188 2.054688 33.746094 2.152344 33.414062 2.476562 L 30.785156 5.050781 L 27.558594 2.410156 C 27.140625 2.066406 26.539062 2.058594 26.109375 2.390625 L 22.589844 5.125 L 19.273438 2.410156 C 18.839844 2.054688 18.214844 2.058594 17.789062 2.417969 L 14.636719 5.070312 L 11.6875 2.441406 C 11.347656 2.136719 10.859375 2.058594 10.441406 2.246094 C 10.023438 2.429688 9.753906 2.84375 9.753906 3.300781 L 9.753906 23.804688 L 12.074219 23.804688 L 12.074219 5.886719 L 13.839844 7.464844 C 14.273438 7.851562 14.921875 7.859375 15.363281 7.488281 L 18.546875 4.804688 L 21.832031 7.496094 C 22.253906 7.839844 22.855469 7.847656 23.285156 7.515625 L 26.804688 4.78125 L 30.121094 7.496094 C 30.578125 7.871094 31.246094 7.84375 31.671875 7.429688 L 33.066406 6.058594 L 33.066406 30.550781 L 22.425781 30.550781 L 21.261719 32.863281 L 34.226562 32.863281 C 34.867188 32.863281 35.386719 32.34375 35.386719 31.707031 L 35.386719 3.300781 C 35.386719 2.835938 35.105469 2.414062 34.675781 2.234375 " fill-opacity="1" fill-rule="nonzero"/></g></svg>