<svg xmlns="http://www.w3.org/2000/svg" xmlns:xlink="http://www.w3.org/1999/xlink" width="50" zoomAndPan="magnify" viewBox="0 0 37.5 37.499999" height="50" preserveAspectRatio="xMidYMid meet" version="1.0"><defs><clipPath id="09a0232087"><path d="M 1.441406 1.441406 L 35.488281 1.441406 L 35.488281 35.488281 L 1.441406 35.488281 Z M 1.441406 1.441406 " clip-rule="nonzero"/></clipPath></defs><g clip-path="url(#09a0232087)"><path fill="#000000" d="M 11.738281 28.679688 L 4.304688 28.679688 C 2.734375 28.679688 1.449219 27.394531 1.449219 25.824219 L 1.449219 9.957031 C 1.449219 8.386719 2.734375 7.101562 4.304688 7.101562 L 7.464844 7.101562 C 7.765625 7.101562 8.011719 7.34375 8.011719 7.648438 C 8.011719 7.953125 7.765625 8.199219 7.464844 8.199219 L 4.304688 8.199219 C 3.339844 8.199219 2.546875 8.988281 2.546875 9.957031 L 2.546875 25.824219 C 2.546875 26.792969 3.339844 27.582031 4.304688 27.582031 L 24.402344 27.582031 C 24.089844 26.875 23.917969 26.089844 23.917969 25.265625 C 23.917969 25.105469 23.925781 24.949219 23.9375 24.796875 L 3.925781 24.796875 C 3.625 24.796875 3.378906 24.550781 3.378906 24.246094 L 3.378906 9.898438 C 3.378906 9.417969 3.769531 9.03125 4.25 9.03125 L 7.464844 9.03125 C 7.765625 9.03125 8.011719 9.277344 8.011719 9.578125 C 8.011719 9.882812 7.765625 10.128906 7.464844 10.128906 L 4.476562 10.128906 L 4.476562 23.699219 L 24.132812 23.699219 C 24.800781 21.320312 26.953125 19.5625 29.527344 19.484375 L 29.527344 10.128906 L 26.539062 10.128906 C 26.238281 10.128906 25.992188 9.882812 25.992188 9.578125 C 25.992188 9.277344 26.238281 9.03125 26.539062 9.03125 L 29.757812 9.03125 C 30.234375 9.03125 30.625 9.417969 30.625 9.898438 L 30.625 19.558594 C 30.910156 19.601562 31.1875 19.667969 31.457031 19.753906 L 31.457031 9.957031 C 31.457031 8.988281 30.664062 8.199219 29.699219 8.199219 L 26.539062 8.199219 C 26.238281 8.199219 25.992188 7.953125 25.992188 7.648438 C 25.992188 7.34375 26.238281 7.101562 26.539062 7.101562 L 29.699219 7.101562 C 31.269531 7.101562 32.554688 8.386719 32.554688 9.957031 L 32.554688 20.234375 C 34.304688 21.230469 35.484375 23.109375 35.484375 25.265625 C 35.484375 28.460938 32.894531 31.046875 29.699219 31.046875 C 27.785156 31.046875 26.085938 30.117188 25.035156 28.679688 L 22.269531 28.679688 L 22.269531 31.25 L 25.230469 31.25 C 26.644531 31.25 27.746094 32.238281 27.746094 33.367188 L 27.746094 34.941406 C 27.746094 35.242188 27.5 35.488281 27.199219 35.488281 L 6.808594 35.488281 C 6.507812 35.488281 6.261719 35.242188 6.261719 34.941406 L 6.261719 33.367188 C 6.261719 32.238281 7.363281 31.25 8.777344 31.25 L 11.738281 31.25 Z M 21.171875 28.679688 L 12.835938 28.679688 L 12.835938 31.25 L 21.171875 31.25 Z M 26.652344 28.824219 C 27.472656 29.527344 28.535156 29.949219 29.699219 29.949219 C 30.863281 29.949219 31.925781 29.527344 32.746094 28.824219 C 32.46875 27.398438 31.207031 26.320312 29.699219 26.320312 C 28.191406 26.320312 26.933594 27.398438 26.652344 28.824219 Z M 33.601562 27.859375 C 34.097656 27.117188 34.382812 26.226562 34.382812 25.265625 C 34.382812 22.679688 32.289062 20.582031 29.699219 20.582031 C 27.113281 20.582031 25.015625 22.679688 25.015625 25.265625 C 25.015625 26.226562 25.304688 27.117188 25.800781 27.859375 C 26.203125 26.851562 26.992188 26.035156 27.980469 25.589844 C 27.5625 25.15625 27.304688 24.570312 27.304688 23.921875 C 27.304688 22.605469 28.382812 21.523438 29.699219 21.523438 C 31.019531 21.523438 32.097656 22.605469 32.097656 23.921875 C 32.097656 24.570312 31.839844 25.15625 31.417969 25.589844 C 32.410156 26.035156 33.195312 26.851562 33.601562 27.859375 Z M 29.699219 25.222656 C 30.414062 25.222656 31 24.636719 31 23.921875 C 31 23.207031 30.414062 22.625 29.699219 22.625 C 28.984375 22.625 28.402344 23.207031 28.402344 23.921875 C 28.402344 24.636719 28.984375 25.222656 29.699219 25.222656 Z M 7.359375 34.390625 C 7.359375 34.390625 26.648438 34.390625 26.648438 34.390625 L 26.648438 33.367188 C 26.648438 32.769531 25.980469 32.347656 25.230469 32.347656 L 8.777344 32.347656 C 8.027344 32.347656 7.359375 32.769531 7.359375 33.367188 Z M 17.21875 1.5 L 24.699219 4.707031 C 24.898438 4.792969 25.03125 4.992188 25.03125 5.210938 L 25.03125 11.710938 C 25.03125 16.367188 21.667969 20.410156 17.105469 21.277344 C 17.035156 21.292969 16.964844 21.292969 16.898438 21.277344 C 12.339844 20.410156 8.972656 16.367188 8.972656 11.710938 L 8.972656 5.210938 C 8.972656 4.992188 9.105469 4.792969 9.304688 4.707031 L 16.785156 1.5 C 16.921875 1.441406 17.078125 1.441406 17.21875 1.5 Z M 17 2.601562 L 10.070312 5.574219 L 10.070312 11.710938 C 10.070312 15.808594 13.007812 19.367188 17 20.179688 C 20.996094 19.367188 23.933594 15.808594 23.933594 11.710938 L 23.933594 5.574219 Z M 16.601562 18.269531 L 15.234375 16.800781 C 15.140625 16.699219 15.089844 16.566406 15.089844 16.429688 L 15.089844 15.921875 C 15.089844 15.765625 15.15625 15.617188 15.269531 15.515625 L 15.644531 15.175781 L 15.269531 14.835938 C 15.15625 14.730469 15.089844 14.585938 15.089844 14.429688 C 15.089844 14.273438 15.15625 14.125 15.269531 14.023438 L 15.644531 13.683594 L 15.269531 13.34375 C 15.15625 13.242188 15.089844 13.09375 15.089844 12.9375 C 15.089844 12.9375 15.089844 10.578125 15.089844 10.578125 C 14.175781 9.960938 13.570312 8.917969 13.570312 7.730469 C 13.570312 5.835938 15.109375 4.300781 17.003906 4.300781 C 18.898438 4.300781 20.433594 5.835938 20.433594 7.730469 C 20.433594 8.917969 19.832031 9.960938 18.914062 10.578125 L 18.914062 16.429688 C 18.914062 16.566406 18.863281 16.699219 18.769531 16.800781 L 17.40625 18.269531 C 17.300781 18.378906 17.15625 18.445312 17.003906 18.445312 C 16.851562 18.445312 16.703125 18.378906 16.601562 18.269531 Z M 17.003906 17.089844 L 17.816406 16.210938 L 17.816406 10.269531 C 17.816406 10.066406 17.929688 9.882812 18.105469 9.785156 C 18.835938 9.390625 19.335938 8.621094 19.335938 7.730469 C 19.335938 6.445312 18.289062 5.398438 17.003906 5.398438 C 15.714844 5.398438 14.667969 6.445312 14.667969 7.730469 C 14.667969 8.621094 15.167969 9.390625 15.898438 9.785156 C 16.074219 9.882812 16.1875 10.066406 16.1875 10.269531 L 16.1875 12.695312 L 16.828125 13.277344 C 16.945312 13.382812 17.011719 13.53125 17.011719 13.683594 C 17.011719 13.839844 16.945312 13.988281 16.828125 14.089844 L 16.457031 14.429688 L 16.828125 14.769531 C 16.945312 14.871094 17.011719 15.019531 17.011719 15.175781 C 17.011719 15.332031 16.945312 15.476562 16.828125 15.582031 L 16.1875 16.164062 L 16.1875 16.210938 Z M 18.40625 7.035156 C 18.40625 7.808594 17.777344 8.441406 17.003906 8.441406 C 16.226562 8.441406 15.597656 7.808594 15.597656 7.035156 C 15.597656 6.257812 16.226562 5.628906 17.003906 5.628906 C 17.777344 5.628906 18.40625 6.257812 18.40625 7.035156 Z M 17.308594 7.035156 C 17.308594 6.863281 17.171875 6.726562 17.003906 6.726562 C 16.832031 6.726562 16.695312 6.863281 16.695312 7.035156 C 16.695312 7.203125 16.832031 7.34375 17.003906 7.34375 C 17.171875 7.34375 17.308594 7.203125 17.308594 7.035156 Z M 17.308594 7.035156 " fill-opacity="1" fill-rule="evenodd"/></g></svg>