<svg xmlns="http://www.w3.org/2000/svg" xmlns:xlink="http://www.w3.org/1999/xlink" width="50" zoomAndPan="magnify" viewBox="0 0 37.5 37.499999" height="50" preserveAspectRatio="xMidYMid meet" version="1.0"><defs><clipPath id="27cdedb77c"><path d="M 5 12 L 35 12 L 35 35.695312 L 5 35.695312 Z M 5 12 " clip-rule="nonzero"/></clipPath></defs><path fill="#000000" d="M 21.53125 10.625 L 18.652344 9.226562 C 18.566406 9.183594 18.46875 9.183594 18.386719 9.226562 L 10.199219 13.199219 C 10.09375 13.25 10.027344 13.359375 10.027344 13.476562 C 10.027344 13.597656 10.09375 13.703125 10.199219 13.753906 L 13.078125 15.15625 C 13.121094 15.179688 13.167969 15.1875 13.214844 15.1875 C 13.257812 15.1875 13.304688 15.175781 13.347656 15.15625 L 21.53125 11.183594 C 21.636719 11.132812 21.703125 11.023438 21.703125 10.90625 C 21.703125 10.785156 21.636719 10.679688 21.53125 10.625 Z M 21.53125 10.625 " fill-opacity="1" fill-rule="nonzero"/><path fill="#000000" d="M 8.796875 14.914062 C 8.707031 14.96875 8.652344 15.066406 8.652344 15.175781 L 8.652344 24.351562 C 8.652344 24.472656 8.71875 24.578125 8.824219 24.632812 L 17.332031 28.769531 C 17.371094 28.789062 17.417969 28.796875 17.464844 28.796875 C 17.519531 28.796875 17.578125 28.78125 17.625 28.75 C 17.714844 28.695312 17.769531 28.597656 17.769531 28.488281 L 17.769531 19.3125 C 17.769531 19.191406 17.703125 19.085938 17.597656 19.03125 L 9.089844 14.894531 C 8.996094 14.847656 8.882812 14.855469 8.796875 14.914062 Z M 10.828125 19.269531 C 10.949219 19.007812 11.214844 18.84375 11.496094 18.84375 C 11.609375 18.84375 11.71875 18.867188 11.820312 18.917969 L 14.957031 20.441406 C 15.136719 20.527344 15.269531 20.679688 15.335938 20.871094 C 15.402344 21.058594 15.390625 21.265625 15.304688 21.445312 C 15.132812 21.804688 14.675781 21.976562 14.308594 21.796875 L 11.175781 20.273438 C 10.996094 20.1875 10.863281 20.035156 10.796875 19.84375 C 10.730469 19.65625 10.738281 19.453125 10.828125 19.269531 Z M 10.828125 19.269531 " fill-opacity="1" fill-rule="nonzero"/><path fill="#000000" d="M 19.261719 19.3125 L 19.261719 28.492188 C 19.261719 28.597656 19.316406 28.695312 19.40625 28.75 C 19.453125 28.78125 19.511719 28.796875 19.566406 28.796875 C 19.613281 28.796875 19.65625 28.789062 19.699219 28.769531 L 28.207031 24.632812 C 28.3125 24.578125 28.378906 24.472656 28.378906 24.351562 L 28.378906 15.179688 C 28.378906 15.074219 28.324219 14.972656 28.238281 14.917969 C 28.148438 14.859375 28.035156 14.855469 27.941406 14.898438 L 19.433594 19.03125 C 19.328125 19.085938 19.261719 19.191406 19.261719 19.3125 Z M 19.261719 19.3125 " fill-opacity="1" fill-rule="nonzero"/><path fill="#000000" d="M 26.832031 13.207031 L 23.957031 11.808594 C 23.875 11.765625 23.777344 11.765625 23.691406 11.808594 L 15.503906 15.78125 C 15.398438 15.832031 15.332031 15.9375 15.332031 16.058594 C 15.332031 16.175781 15.398438 16.285156 15.503906 16.335938 L 18.382812 17.734375 C 18.425781 17.757812 18.46875 17.765625 18.515625 17.765625 C 18.5625 17.765625 18.605469 17.757812 18.648438 17.734375 L 26.832031 13.761719 C 26.9375 13.710938 27.007812 13.605469 27.007812 13.484375 C 27.007812 13.367188 26.9375 13.257812 26.832031 13.207031 Z M 26.832031 13.207031 " fill-opacity="1" fill-rule="nonzero"/><path fill="#000000" d="M 4.148438 25.894531 C 4.242188 25.894531 4.339844 25.875 4.433594 25.839844 C 4.824219 25.679688 5.015625 25.230469 4.855469 24.832031 C 2.421875 18.722656 4.199219 11.835938 9.28125 7.703125 C 14.566406 3.402344 21.914062 3.40625 27.160156 7.246094 L 25.714844 8.421875 C 25.472656 8.617188 25.375 8.941406 25.460938 9.242188 C 25.546875 9.542969 25.804688 9.761719 26.113281 9.792969 L 30.53125 10.273438 C 30.558594 10.277344 30.585938 10.277344 30.613281 10.277344 C 31 10.277344 31.332031 9.984375 31.375 9.585938 L 31.851562 5.125 C 31.882812 4.816406 31.726562 4.515625 31.457031 4.363281 C 31.183594 4.214844 30.851562 4.242188 30.609375 4.441406 L 28.390625 6.246094 C 22.582031 1.753906 14.265625 1.660156 8.324219 6.496094 C 2.710938 11.0625 0.75 18.664062 3.4375 25.410156 C 3.558594 25.710938 3.84375 25.894531 4.148438 25.894531 Z M 4.148438 25.894531 " fill-opacity="1" fill-rule="nonzero"/><g clip-path="url(#27cdedb77c)"><path fill="#000000" d="M 33.535156 12.996094 C 33.375 12.601562 32.925781 12.414062 32.535156 12.578125 C 32.144531 12.742188 31.960938 13.195312 32.121094 13.589844 C 34.609375 19.644531 32.8125 26.746094 27.753906 30.863281 C 22.472656 35.164062 15.121094 35.160156 9.875 31.316406 L 11.320312 30.144531 C 11.558594 29.945312 11.660156 29.625 11.574219 29.324219 C 11.484375 29.023438 11.226562 28.804688 10.921875 28.773438 L 6.503906 28.289062 C 6.296875 28.269531 6.097656 28.328125 5.941406 28.457031 C 5.78125 28.585938 5.683594 28.773438 5.660156 28.976562 L 5.183594 33.441406 C 5.152344 33.75 5.304688 34.050781 5.578125 34.199219 C 5.691406 34.261719 5.820312 34.296875 5.945312 34.296875 C 6.117188 34.296875 6.285156 34.238281 6.425781 34.125 L 8.644531 32.320312 C 11.523438 34.546875 15.015625 35.695312 18.535156 35.691406 C 22.113281 35.691406 25.714844 34.507812 28.710938 32.070312 C 34.296875 27.523438 36.28125 19.679688 33.535156 12.996094 Z M 33.535156 12.996094 " fill-opacity="1" fill-rule="nonzero"/></g></svg>