<svg xmlns="http://www.w3.org/2000/svg" xmlns:xlink="http://www.w3.org/1999/xlink" width="50" zoomAndPan="magnify" viewBox="0 0 37.5 37.499999" height="50" preserveAspectRatio="xMidYMid meet" version="1.0"><defs><clipPath id="f36f26c78b"><path d="M 2.984375 1.425781 L 34.070312 1.425781 L 34.070312 35.472656 L 2.984375 35.472656 Z M 2.984375 1.425781 " clip-rule="nonzero"/></clipPath></defs><g clip-path="url(#f36f26c78b)"><path fill="#000000" d="M 18.425781 28.019531 C 18.492188 28.066406 18.5625 28.066406 18.628906 28.019531 C 18.800781 27.902344 19.226562 27.652344 19.796875 27.3125 C 21.957031 26.03125 26.28125 23.46875 26.28125 22.863281 L 26.28125 10.761719 C 26.28125 10.101562 25.664062 9.757812 25.074219 9.617188 C 20.859375 8.632812 16.261719 8.558594 11.984375 9.617188 C 11.394531 9.761719 10.773438 10.101562 10.773438 10.761719 L 10.773438 22.863281 C 10.773438 23.355469 14.570312 25.660156 16.855469 27.046875 C 17.570312 27.480469 18.140625 27.828125 18.425781 28.019531 Z M 18.527344 27.210938 C 18.390625 27.210938 18.25 27.167969 18.125 27.082031 C 17.910156 26.9375 17.421875 26.640625 16.808594 26.269531 C 14.757812 25.023438 11.347656 22.949219 11.347656 22.21875 L 11.347656 11.886719 C 11.347656 11.039062 12.046875 10.554688 12.808594 10.367188 C 16.550781 9.441406 20.558594 9.503906 24.242188 10.367188 C 25.011719 10.546875 25.710938 11.039062 25.710938 11.886719 L 25.710938 22.214844 C 25.710938 23.050781 21.835938 25.347656 19.902344 26.496094 C 19.414062 26.78125 19.054688 26.996094 18.929688 27.078125 C 18.804688 27.167969 18.667969 27.210938 18.527344 27.210938 Z M 18.464844 26.582031 C 18.507812 26.609375 18.550781 26.609375 18.589844 26.582031 C 18.738281 26.480469 19.097656 26.265625 19.589844 25.976562 C 21.425781 24.886719 25.101562 22.707031 25.101562 22.214844 L 25.101562 11.886719 C 25.101562 11.351562 24.589844 11.070312 24.105469 10.957031 C 20.515625 10.117188 16.597656 10.054688 12.953125 10.957031 C 12.472656 11.074219 11.953125 11.351562 11.953125 11.886719 L 11.953125 22.214844 C 11.953125 22.613281 15.183594 24.570312 17.125 25.75 C 17.734375 26.117188 18.21875 26.414062 18.464844 26.582031 Z M 20.222656 12.65625 C 19.285156 11.71875 17.773438 11.71875 16.832031 12.65625 C 16.394531 13.089844 16.125 13.6875 16.125 14.34375 L 16.125 15.921875 C 16.125 16.242188 16.714844 16.242188 16.714844 15.921875 L 16.714844 14.5 C 16.714844 12.910156 18.660156 12.078125 19.808594 13.222656 C 20.140625 13.550781 20.34375 14.003906 20.34375 14.5 L 20.34375 15.921875 C 20.34375 16.242188 20.929688 16.242188 20.929688 15.921875 L 20.929688 14.34375 C 20.929688 13.6875 20.660156 13.089844 20.222656 12.65625 Z M 19.734375 15.335938 L 19.734375 14.5 C 19.734375 13.449219 18.441406 12.890625 17.675781 13.65625 C 17.460938 13.871094 17.324219 14.171875 17.324219 14.5 L 17.324219 15.335938 Z M 21.539062 15.949219 C 21.507812 17.039062 19.753906 17.035156 19.734375 15.941406 L 17.324219 15.941406 C 17.300781 17.035156 15.546875 17.039062 15.515625 15.949219 C 15.253906 16 15.058594 16.230469 15.058594 16.5 L 15.058594 21.519531 C 15.058594 21.824219 15.308594 22.078125 15.613281 22.078125 L 21.4375 22.078125 C 21.746094 22.078125 22 21.824219 22 21.519531 L 22 16.5 C 22 16.230469 21.800781 16 21.539062 15.949219 Z M 18.527344 11.347656 C 20.183594 11.347656 21.539062 12.695312 21.539062 14.34375 L 21.539062 15.339844 C 22.140625 15.390625 22.609375 15.894531 22.609375 16.5 L 22.609375 21.519531 C 22.609375 22.160156 22.082031 22.683594 21.4375 22.683594 L 15.613281 22.683594 C 14.972656 22.683594 14.445312 22.160156 14.445312 21.519531 L 14.445312 16.5 C 14.445312 15.894531 14.914062 15.390625 15.511719 15.339844 L 15.511719 14.34375 C 15.515625 12.695312 16.867188 11.347656 18.527344 11.347656 Z M 19 17.609375 C 18.582031 17.195312 17.859375 17.492188 17.859375 18.078125 C 17.859375 18.597656 18.285156 18.574219 18.441406 19.007812 C 18.496094 19.160156 18.503906 19.328125 18.457031 19.496094 L 18.15625 20.601562 L 18.898438 20.601562 L 18.597656 19.496094 C 18.507812 19.160156 18.632812 18.820312 18.914062 18.617188 C 19.25 18.378906 19.289062 17.898438 19 17.609375 Z M 18.527344 16.808594 C 19.769531 16.808594 20.273438 18.398438 19.269531 19.113281 C 19.191406 19.164062 19.160156 19.25 19.1875 19.339844 L 19.515625 20.542969 C 19.605469 20.878906 19.351562 21.210938 19 21.210938 L 18.054688 21.210938 C 17.707031 21.210938 17.449219 20.878906 17.539062 20.546875 L 17.867188 19.339844 C 17.9375 19.085938 17.632812 19.125 17.394531 18.660156 C 16.957031 17.816406 17.574219 16.808594 18.527344 16.808594 Z M 4.203125 16.753906 C 3.753906 16.304688 2.984375 16.625 2.984375 17.257812 C 2.984375 17.890625 3.753906 18.207031 4.203125 17.761719 C 4.484375 17.484375 4.484375 17.03125 4.203125 16.753906 Z M 7.046875 4.195312 C 6.597656 3.746094 5.824219 4.066406 5.824219 4.699219 C 5.824219 5.332031 6.597656 5.648438 7.046875 5.203125 C 7.324219 4.925781 7.324219 4.472656 7.046875 4.195312 Z M 14.535156 1.890625 C 14.085938 1.441406 13.316406 1.761719 13.316406 2.394531 C 13.316406 3.023438 14.085938 3.34375 14.535156 2.894531 C 14.816406 2.617188 14.816406 2.167969 14.535156 1.890625 Z M 23.027344 1.679688 C 22.390625 1.679688 22.070312 2.449219 22.519531 2.898438 C 22.96875 3.34375 23.742188 3.027344 23.742188 2.394531 C 23.742188 2 23.421875 1.679688 23.027344 1.679688 Z M 30.515625 3.988281 C 29.878906 3.988281 29.558594 4.753906 30.007812 5.203125 C 30.457031 5.652344 31.230469 5.332031 31.230469 4.699219 C 31.234375 4.304688 30.914062 3.988281 30.515625 3.988281 Z M 33.355469 16.546875 C 32.71875 16.546875 32.398438 17.3125 32.847656 17.761719 C 33.300781 18.210938 34.074219 17.890625 34.074219 17.257812 C 34.074219 16.863281 33.753906 16.546875 33.355469 16.546875 Z M 29.871094 29.410156 C 29.238281 29.410156 28.917969 30.179688 29.367188 30.625 C 29.816406 31.074219 30.589844 30.753906 30.589844 30.125 C 30.589844 29.726562 30.269531 29.410156 29.871094 29.410156 Z M 19.035156 34.007812 C 18.582031 33.558594 17.8125 33.878906 17.8125 34.511719 C 17.8125 35.144531 18.582031 35.464844 19.035156 35.015625 C 19.3125 34.738281 19.3125 34.289062 19.035156 34.007812 Z M 7.691406 29.621094 C 7.238281 29.171875 6.464844 29.488281 6.464844 30.121094 C 6.464844 30.753906 7.242188 31.074219 7.691406 30.625 C 7.96875 30.347656 7.96875 29.894531 7.691406 29.621094 Z M 27.804688 17.5625 C 27.402344 17.5625 27.402344 16.953125 27.804688 16.953125 L 31.675781 16.953125 C 32.078125 16.953125 32.078125 17.5625 31.675781 17.5625 Z M 28.023438 13.117188 C 27.738281 13.402344 27.304688 12.972656 27.589844 12.691406 L 30.238281 10.054688 L 30.238281 6.328125 C 30.238281 5.933594 30.847656 5.933594 30.847656 6.328125 L 30.847656 10.183594 C 30.847656 10.261719 30.816406 10.335938 30.757812 10.394531 Z M 23.332031 7.90625 C 23.332031 8.300781 22.722656 8.300781 22.722656 7.90625 L 22.722656 4.050781 C 22.722656 3.652344 23.332031 3.652344 23.332031 4.050781 Z M 14.335938 7.90625 C 14.335938 8.300781 13.726562 8.300781 13.726562 7.90625 L 13.726562 4.050781 C 13.726562 3.652344 14.335938 3.652344 14.335938 4.050781 Z M 9.464844 12.691406 C 9.75 12.972656 9.316406 13.402344 9.035156 13.117188 L 6.296875 10.394531 C 6.238281 10.335938 6.207031 10.257812 6.207031 10.183594 L 6.207031 6.328125 C 6.207031 5.933594 6.816406 5.933594 6.816406 6.328125 L 6.816406 10.054688 Z M 9.25 16.953125 C 9.648438 16.953125 9.648438 17.5625 9.25 17.5625 L 5.378906 17.5625 C 4.976562 17.5625 4.976562 16.953125 5.378906 16.953125 Z M 11.054688 24.339844 C 11.457031 24.339844 11.457031 24.949219 11.054688 24.949219 L 7.488281 24.949219 L 7.488281 28.496094 C 7.488281 28.894531 6.878906 28.894531 6.878906 28.496094 L 6.878906 24.644531 C 6.878906 24.476562 7.015625 24.339844 7.183594 24.339844 Z M 18.222656 28.996094 C 18.222656 28.59375 18.832031 28.59375 18.832031 28.996094 L 18.832031 32.847656 C 18.832031 33.246094 18.222656 33.246094 18.222656 32.847656 Z M 26.003906 24.949219 C 25.601562 24.949219 25.601562 24.34375 26.003906 24.34375 L 29.871094 24.34375 C 30.042969 24.34375 30.179688 24.476562 30.179688 24.644531 L 30.179688 28.496094 C 30.179688 28.898438 29.570312 28.898438 29.570312 28.496094 L 29.570312 24.949219 Z M 26.003906 24.949219 " fill-opacity="1" fill-rule="nonzero"/></g></svg>