<svg xmlns="http://www.w3.org/2000/svg" xmlns:xlink="http://www.w3.org/1999/xlink" width="50" zoomAndPan="magnify" viewBox="0 0 37.5 37.499999" height="50" preserveAspectRatio="xMidYMid meet" version="1.0"><defs><clipPath id="c1e8fdf630"><path d="M 1.035156 3.132812 L 35.824219 3.132812 L 35.824219 34.21875 L 1.035156 34.21875 Z M 1.035156 3.132812 " clip-rule="nonzero"/></clipPath></defs><g clip-path="url(#c1e8fdf630)"><path fill="#000000" d="M 9.515625 21.621094 C 7.90625 21.621094 6.601562 22.945312 6.601562 24.578125 L 6.601562 29.492188 C 6.601562 29.875 6.90625 30.183594 7.285156 30.183594 L 11.746094 30.183594 C 12.121094 30.183594 12.425781 29.875 12.425781 29.492188 L 12.425781 24.578125 C 12.425781 22.945312 11.121094 21.621094 9.515625 21.621094 M 32.480469 3.898438 C 32.480469 3.515625 32.175781 3.207031 31.796875 3.207031 L 5.128906 3.207031 C 4.75 3.207031 4.445312 3.515625 4.445312 3.898438 L 4.445312 6.648438 L 32.480469 6.648438 Z M 28.96875 12.726562 L 35.53125 12.726562 L 32.832031 8.007812 L 27.234375 8.007812 Z M 25.78125 8.007812 L 21.695312 8.007812 L 22.398438 12.726562 L 27.511719 12.726562 Z M 9.664062 8.007812 L 3.96875 8.007812 L 1.320312 12.726562 L 7.929688 12.726562 Z M 16.832031 8.007812 L 15.917969 12.726562 L 21.019531 12.726562 L 20.316406 8.007812 Z M 15.441406 8.007812 L 11.117188 8.007812 L 9.382812 12.726562 L 14.527344 12.726562 Z M 15.769531 18.902344 C 16.480469 19.539062 17.410156 19.925781 18.429688 19.925781 C 19.46875 19.925781 20.414062 19.523438 21.128906 18.867188 L 21.128906 14.121094 L 15.769531 14.121094 Z M 14.40625 14.121094 L 9.085938 14.121094 L 9.085938 18.902344 C 9.792969 19.539062 10.726562 19.925781 11.746094 19.925781 C 12.765625 19.925781 13.695312 19.539062 14.40625 18.902344 Z M 27.8125 18.867188 L 27.8125 14.121094 L 22.492188 14.121094 L 22.492188 18.9375 C 23.199219 19.554688 24.113281 19.925781 25.113281 19.925781 C 26.152344 19.925781 27.097656 19.523438 27.8125 18.867188 M 18.929688 27.59375 C 18.929688 27.210938 19.238281 26.902344 19.613281 26.902344 C 19.988281 26.902344 20.296875 27.210938 20.296875 27.59375 L 20.296875 28.984375 C 20.296875 29.367188 19.988281 29.675781 19.613281 29.675781 C 19.238281 29.675781 18.929688 29.367188 18.929688 28.984375 Z M 29.175781 14.121094 L 29.175781 18.9375 C 29.882812 19.554688 30.796875 19.925781 31.796875 19.925781 C 32.128906 19.925781 32.453125 19.882812 32.761719 19.804688 L 32.761719 32.777344 L 22.453125 32.777344 L 22.453125 25.703125 C 22.453125 23.453125 20.648438 21.621094 18.429688 21.621094 C 16.210938 21.621094 14.40625 23.453125 14.40625 25.703125 L 14.40625 32.777344 L 4.121094 32.777344 L 4.121094 19.8125 C 4.421875 19.886719 4.738281 19.925781 5.058594 19.925781 C 6.078125 19.925781 7.011719 19.539062 7.71875 18.902344 L 7.71875 14.121094 L 1.035156 14.121094 L 1.035156 15.839844 C 1.035156 17.222656 1.714844 18.445312 2.753906 19.1875 L 2.753906 33.46875 C 2.753906 33.851562 3.058594 34.160156 3.4375 34.160156 L 33.441406 34.160156 C 33.820312 34.160156 34.125 33.851562 34.125 33.46875 L 34.125 19.171875 C 35.152344 18.429688 35.824219 17.214844 35.824219 15.839844 L 35.824219 14.121094 Z M 25.113281 30.183594 L 29.574219 30.183594 C 29.953125 30.183594 30.257812 29.875 30.257812 29.492188 L 30.257812 24.578125 C 30.257812 22.945312 28.949219 21.621094 27.34375 21.621094 C 25.738281 21.621094 24.429688 22.945312 24.429688 24.578125 L 24.429688 29.492188 C 24.429688 29.875 24.738281 30.183594 25.113281 30.183594 " fill-opacity="1" fill-rule="evenodd"/></g></svg>