<svg xmlns="http://www.w3.org/2000/svg" xmlns:xlink="http://www.w3.org/1999/xlink" width="50" zoomAndPan="magnify" viewBox="0 0 37.5 37.499999" height="50" preserveAspectRatio="xMidYMid meet" version="1.0"><defs><clipPath id="50a2092de9"><path d="M 0.667969 2 L 36.191406 2 L 36.191406 35.265625 L 0.667969 35.265625 Z M 0.667969 2 " clip-rule="nonzero"/></clipPath></defs><g clip-path="url(#50a2092de9)"><path fill="#000000" d="M 34.972656 23.394531 C 32.351562 25.367188 27.601562 28.929688 25.515625 30.496094 C 24.851562 30.992188 24.042969 31.230469 23.21875 31.160156 L 13.785156 30.398438 C 13.003906 30.335938 12.214844 30.476562 11.503906 30.8125 L 9.917969 31.554688 L 6.128906 23.171875 L 9.507812 21.597656 C 10.414062 21.175781 11.441406 21.066406 12.414062 21.28125 L 19.691406 22.910156 C 21.402344 23.289062 23.507812 24.214844 23.550781 25.445312 C 23.5625 25.753906 23.347656 26.027344 23.097656 26.207031 C 22.851562 26.390625 22.546875 26.460938 22.242188 26.402344 L 15.082031 25.058594 C 14.757812 24.996094 14.445312 25.214844 14.382812 25.542969 C 14.320312 25.871094 14.535156 26.1875 14.859375 26.25 L 22.019531 27.59375 C 22.164062 27.621094 22.304688 27.636719 22.449219 27.636719 C 22.933594 27.636719 23.398438 27.480469 23.796875 27.1875 C 24.316406 26.808594 24.644531 26.25 24.734375 25.605469 C 24.816406 24.996094 24.65625 24.417969 24.332031 23.949219 L 25.21875 24.144531 C 25.40625 24.183594 25.605469 24.15625 25.777344 24.066406 L 34.011719 19.722656 C 34.863281 19.273438 35.902344 19.804688 36.039062 20.765625 C 36.191406 21.785156 35.785156 22.785156 34.972656 23.394531 Z M 4.605469 22.710938 C 4.445312 22.359375 4.039062 22.207031 3.691406 22.367188 L 1.164062 23.527344 C 0.820312 23.6875 0.667969 24.101562 0.824219 24.453125 L 5.484375 34.757812 C 5.644531 35.109375 6.054688 35.261719 6.398438 35.101562 L 8.917969 33.933594 C 9.265625 33.769531 9.417969 33.359375 9.257812 33.007812 Z M 17.25 16.097656 C 16.585938 16.777344 16.097656 17.628906 15.871094 18.585938 C 15.84375 18.707031 15.835938 18.824219 15.851562 18.9375 C 15.914062 19.433594 16.328125 19.847656 16.855469 19.847656 L 25.15625 19.847656 C 25.683594 19.847656 26.097656 19.441406 26.160156 18.9375 C 26.171875 18.824219 26.167969 18.707031 26.140625 18.585938 C 25.910156 17.636719 25.425781 16.777344 24.761719 16.097656 C 24.109375 15.433594 23.28125 14.933594 22.359375 14.683594 C 22.359375 14.683594 21.976562 14.964844 22.359375 14.683594 C 22.945312 14.261719 23.335938 13.558594 23.335938 12.773438 C 23.335938 11.480469 22.296875 10.421875 21.007812 10.421875 C 19.726562 10.421875 18.683594 11.480469 18.683594 12.773438 C 18.683594 13.5625 19.070312 14.261719 19.664062 14.683594 L 19.660156 14.683594 C 18.730469 14.941406 17.898438 15.433594 17.25 16.097656 Z M 25.578125 6.6875 L 23.929688 2.179688 C 23.855469 1.960938 23.523438 1.960938 23.4375 2.179688 L 22.585938 4.503906 C 22.511719 4.71875 22.171875 4.71875 22.09375 4.503906 L 21.242188 2.179688 C 21.167969 1.960938 20.835938 1.960938 20.753906 2.179688 L 19.902344 4.503906 C 19.824219 4.71875 19.492188 4.71875 19.410156 4.503906 L 18.558594 2.179688 C 18.480469 1.960938 18.148438 1.960938 18.066406 2.179688 L 16.417969 6.6875 L 16.417969 8.953125 L 25.578125 8.953125 Z M 10.679688 18.9375 L 14.652344 18.9375 C 14.644531 18.726562 14.652344 18.519531 14.699219 18.316406 C 14.976562 17.175781 15.539062 16.144531 16.335938 15.304688 C 15.96875 15.066406 15.558594 14.886719 15.125 14.765625 C 15.601562 14.425781 15.914062 13.859375 15.914062 13.222656 C 15.914062 12.171875 15.074219 11.316406 14.027344 11.316406 C 12.992188 11.316406 12.144531 12.171875 12.144531 13.222656 C 12.144531 13.859375 12.457031 14.425781 12.941406 14.765625 C 11.433594 15.167969 10.25 16.382812 9.882812 17.917969 C 9.769531 18.441406 10.152344 18.9375 10.679688 18.9375 Z M 27.296875 18.308594 C 27.34375 18.523438 27.359375 18.734375 27.351562 18.9375 L 31.316406 18.9375 C 31.851562 18.9375 32.230469 18.441406 32.113281 17.917969 C 31.746094 16.382812 30.5625 15.167969 29.054688 14.765625 C 29.53125 14.425781 29.84375 13.859375 29.84375 13.222656 C 29.84375 12.171875 29.003906 11.316406 27.96875 11.316406 C 26.929688 11.316406 26.082031 12.171875 26.082031 13.222656 C 26.082031 13.859375 26.394531 14.425781 26.878906 14.765625 C 26.445312 14.886719 26.035156 15.066406 25.667969 15.304688 C 26.457031 16.144531 27.023438 17.179688 27.296875 18.308594 Z M 27.296875 18.308594 " fill-opacity="1" fill-rule="nonzero"/></g></svg>