<svg xmlns="http://www.w3.org/2000/svg" xmlns:xlink="http://www.w3.org/1999/xlink" width="50" zoomAndPan="magnify" viewBox="0 0 37.5 37.499999" height="50" preserveAspectRatio="xMidYMid meet" version="1.0"><defs><clipPath id="15fd36551f"><path d="M 1.46875 3.914062 L 35.515625 3.914062 L 35.515625 32.78125 L 1.46875 32.78125 Z M 1.46875 3.914062 " clip-rule="nonzero"/></clipPath></defs><g clip-path="url(#15fd36551f)"><path fill="#000000" d="M 34.277344 27.367188 L 32.457031 27.367188 L 32.457031 5.71875 C 32.457031 5.480469 32.410156 5.25 32.316406 5.03125 C 32.226562 4.808594 32.09375 4.613281 31.921875 4.445312 C 31.753906 4.273438 31.554688 4.144531 31.332031 4.054688 C 31.109375 3.960938 30.878906 3.914062 30.636719 3.914062 L 6.347656 3.914062 C 6.105469 3.914062 5.875 3.960938 5.652344 4.054688 C 5.425781 4.144531 5.230469 4.273438 5.058594 4.445312 C 4.890625 4.613281 4.757812 4.808594 4.664062 5.03125 C 4.574219 5.25 4.527344 5.480469 4.527344 5.71875 L 4.527344 27.367188 L 2.703125 27.367188 C 2.542969 27.367188 2.386719 27.398438 2.238281 27.460938 C 2.089844 27.519531 1.960938 27.609375 1.847656 27.722656 C 1.730469 27.832031 1.644531 27.964844 1.582031 28.109375 C 1.519531 28.257812 1.488281 28.410156 1.488281 28.570312 L 1.488281 31.578125 C 1.488281 31.738281 1.519531 31.890625 1.582031 32.039062 C 1.644531 32.183594 1.730469 32.316406 1.847656 32.429688 C 1.960938 32.539062 2.089844 32.628906 2.238281 32.6875 C 2.386719 32.75 2.542969 32.78125 2.703125 32.78125 L 34.277344 32.78125 C 34.441406 32.78125 34.59375 32.75 34.742188 32.6875 C 34.890625 32.628906 35.023438 32.539062 35.136719 32.429688 C 35.25 32.316406 35.339844 32.183594 35.402344 32.039062 C 35.460938 31.890625 35.492188 31.738281 35.492188 31.578125 L 35.492188 28.570312 C 35.492188 28.410156 35.460938 28.257812 35.402344 28.109375 C 35.339844 27.964844 35.25 27.832031 35.136719 27.722656 C 35.023438 27.609375 34.890625 27.519531 34.742188 27.460938 C 34.59375 27.398438 34.441406 27.367188 34.277344 27.367188 Z M 5.738281 5.71875 C 5.742188 5.554688 5.800781 5.410156 5.917969 5.292969 C 6.035156 5.175781 6.179688 5.117188 6.347656 5.117188 L 30.636719 5.117188 C 30.804688 5.117188 30.945312 5.175781 31.066406 5.292969 C 31.183594 5.410156 31.242188 5.554688 31.242188 5.71875 L 31.242188 27.367188 L 5.738281 27.367188 Z M 13.632812 28.570312 L 23.347656 28.570312 L 23.347656 29.171875 L 13.632812 29.171875 Z M 2.703125 31.578125 L 2.703125 28.570312 L 12.417969 28.570312 L 12.417969 29.773438 C 12.417969 29.941406 12.480469 30.082031 12.597656 30.199219 C 12.714844 30.316406 12.859375 30.375 13.027344 30.375 L 23.957031 30.375 C 24.125 30.375 24.265625 30.316406 24.386719 30.199219 C 24.503906 30.082031 24.5625 29.941406 24.5625 29.773438 L 24.5625 28.570312 L 34.277344 28.570312 L 34.28125 31.578125 Z M 18.492188 12.335938 C 18.734375 12.335938 18.964844 12.289062 19.1875 12.195312 C 19.410156 12.105469 19.609375 11.976562 19.78125 11.804688 C 19.949219 11.636719 20.082031 11.441406 20.175781 11.21875 C 20.265625 11 20.3125 10.769531 20.3125 10.53125 C 20.3125 10.289062 20.265625 10.0625 20.175781 9.839844 C 20.082031 9.617188 19.949219 9.421875 19.78125 9.253906 C 19.609375 9.085938 19.410156 8.953125 19.1875 8.863281 C 18.964844 8.773438 18.734375 8.726562 18.492188 8.726562 C 18.25 8.726562 18.019531 8.773438 17.792969 8.863281 C 17.570312 8.953125 17.375 9.085938 17.203125 9.253906 C 17.03125 9.421875 16.902344 9.617188 16.808594 9.839844 C 16.714844 10.0625 16.667969 10.289062 16.667969 10.53125 C 16.671875 10.769531 16.714844 11 16.808594 11.21875 C 16.902344 11.441406 17.035156 11.636719 17.203125 11.804688 C 17.375 11.972656 17.570312 12.105469 17.792969 12.195312 C 18.019531 12.289062 18.25 12.335938 18.492188 12.335938 Z M 18.492188 9.929688 C 18.660156 9.929688 18.800781 9.988281 18.921875 10.105469 C 19.039062 10.222656 19.097656 10.363281 19.097656 10.53125 C 19.097656 10.695312 19.039062 10.839844 18.921875 10.957031 C 18.800781 11.074219 18.660156 11.132812 18.492188 11.132812 C 18.324219 11.132812 18.179688 11.074219 18.0625 10.957031 C 17.945312 10.839844 17.882812 10.695312 17.882812 10.53125 C 17.882812 10.363281 17.945312 10.222656 18.0625 10.105469 C 18.179688 9.988281 18.324219 9.929688 18.492188 9.929688 Z M 15.457031 17.144531 L 21.527344 17.144531 C 21.695312 17.144531 21.839844 17.085938 21.957031 16.96875 C 22.074219 16.851562 22.136719 16.710938 22.136719 16.542969 C 22.136719 16.066406 22.042969 15.605469 21.859375 15.164062 C 21.671875 14.722656 21.410156 14.332031 21.066406 13.992188 C 20.726562 13.652344 20.332031 13.394531 19.886719 13.210938 C 19.4375 13.027344 18.976562 12.9375 18.492188 12.9375 C 18.007812 12.9375 17.542969 13.027344 17.097656 13.210938 C 16.652344 13.394531 16.257812 13.652344 15.914062 13.992188 C 15.574219 14.332031 15.308594 14.722656 15.125 15.164062 C 14.941406 15.605469 14.847656 16.066406 14.847656 16.542969 C 14.847656 16.710938 14.90625 16.851562 15.027344 16.96875 C 15.144531 17.085938 15.289062 17.144531 15.457031 17.144531 Z M 18.492188 14.136719 C 18.761719 14.140625 19.023438 14.183594 19.277344 14.269531 C 19.53125 14.355469 19.765625 14.480469 19.976562 14.644531 C 20.191406 14.804688 20.371094 15 20.519531 15.222656 C 20.667969 15.445312 20.777344 15.683594 20.84375 15.941406 L 16.140625 15.941406 C 16.207031 15.683594 16.316406 15.445312 16.464844 15.222656 C 16.613281 15 16.792969 14.804688 17.003906 14.644531 C 17.21875 14.480469 17.453125 14.355469 17.707031 14.269531 C 17.960938 14.183594 18.222656 14.140625 18.492188 14.136719 Z M 13.027344 20.753906 C 13.027344 20.917969 12.96875 21.0625 12.847656 21.179688 C 12.730469 21.296875 12.585938 21.355469 12.417969 21.355469 C 12.25 21.355469 12.109375 21.296875 11.988281 21.179688 C 11.871094 21.0625 11.8125 20.917969 11.8125 20.753906 C 11.8125 20.585938 11.871094 20.445312 11.988281 20.328125 C 12.109375 20.210938 12.25 20.152344 12.417969 20.152344 C 12.585938 20.152344 12.730469 20.210938 12.847656 20.328125 C 12.96875 20.445312 13.027344 20.585938 13.027344 20.753906 Z M 15.457031 20.753906 C 15.457031 20.917969 15.394531 21.0625 15.277344 21.179688 C 15.160156 21.296875 15.015625 21.355469 14.847656 21.355469 C 14.679688 21.355469 14.539062 21.296875 14.417969 21.179688 C 14.300781 21.0625 14.242188 20.917969 14.242188 20.753906 C 14.242188 20.585938 14.300781 20.445312 14.417969 20.328125 C 14.539062 20.210938 14.679688 20.152344 14.847656 20.152344 C 15.015625 20.152344 15.160156 20.210938 15.277344 20.328125 C 15.394531 20.445312 15.457031 20.585938 15.457031 20.753906 Z M 17.882812 20.753906 C 17.882812 20.917969 17.824219 21.0625 17.707031 21.179688 C 17.589844 21.296875 17.445312 21.355469 17.277344 21.355469 C 17.109375 21.355469 16.964844 21.296875 16.847656 21.179688 C 16.730469 21.0625 16.667969 20.917969 16.667969 20.753906 C 16.667969 20.585938 16.730469 20.445312 16.847656 20.328125 C 16.964844 20.210938 17.109375 20.152344 17.277344 20.152344 C 17.445312 20.152344 17.589844 20.210938 17.707031 20.328125 C 17.824219 20.445312 17.882812 20.585938 17.882812 20.753906 Z M 20.3125 20.753906 C 20.3125 20.917969 20.253906 21.0625 20.136719 21.179688 C 20.015625 21.296875 19.875 21.355469 19.707031 21.355469 C 19.539062 21.355469 19.394531 21.296875 19.277344 21.179688 C 19.15625 21.0625 19.097656 20.917969 19.097656 20.753906 C 19.097656 20.585938 19.15625 20.445312 19.277344 20.328125 C 19.394531 20.210938 19.539062 20.152344 19.707031 20.152344 C 19.875 20.152344 20.015625 20.210938 20.136719 20.328125 C 20.253906 20.445312 20.3125 20.585938 20.3125 20.753906 Z M 26.992188 18.347656 L 9.992188 18.347656 C 9.824219 18.347656 9.679688 18.40625 9.5625 18.523438 C 9.441406 18.640625 9.382812 18.78125 9.382812 18.949219 L 9.382812 22.558594 C 9.382812 22.722656 9.441406 22.863281 9.5625 22.984375 C 9.679688 23.101562 9.824219 23.160156 9.992188 23.160156 L 26.992188 23.160156 C 27.160156 23.160156 27.304688 23.101562 27.421875 22.984375 C 27.539062 22.863281 27.601562 22.722656 27.601562 22.558594 L 27.601562 18.949219 C 27.601562 18.78125 27.539062 18.640625 27.421875 18.523438 C 27.304688 18.40625 27.160156 18.347656 26.992188 18.347656 Z M 10.597656 19.550781 L 23.347656 19.550781 L 23.347656 21.957031 L 10.597656 21.957031 Z M 26.386719 21.957031 L 24.5625 21.957031 L 24.5625 19.550781 L 26.386719 19.550781 Z M 30.636719 25.5625 L 30.636719 6.921875 C 30.636719 6.761719 30.605469 6.609375 30.542969 6.460938 C 30.480469 6.316406 30.394531 6.183594 30.28125 6.070312 C 30.164062 5.960938 30.035156 5.871094 29.886719 5.8125 C 29.738281 5.75 29.582031 5.71875 29.421875 5.71875 L 7.5625 5.71875 C 7.402344 5.71875 7.246094 5.75 7.097656 5.8125 C 6.949219 5.871094 6.816406 5.960938 6.703125 6.070312 C 6.589844 6.183594 6.5 6.316406 6.441406 6.460938 C 6.378906 6.609375 6.347656 6.761719 6.347656 6.921875 L 6.347656 25.5625 C 6.347656 25.722656 6.378906 25.878906 6.441406 26.023438 C 6.5 26.171875 6.589844 26.300781 6.703125 26.414062 C 6.816406 26.527344 6.949219 26.613281 7.097656 26.675781 C 7.246094 26.734375 7.402344 26.765625 7.5625 26.765625 L 29.421875 26.765625 C 29.582031 26.765625 29.738281 26.734375 29.886719 26.675781 C 30.035156 26.613281 30.164062 26.527344 30.28125 26.414062 C 30.394531 26.300781 30.480469 26.171875 30.542969 26.023438 C 30.605469 25.875 30.636719 25.722656 30.636719 25.5625 Z M 7.5625 6.921875 L 29.421875 6.921875 L 29.421875 25.5625 L 7.5625 25.5625 Z M 7.5625 6.921875 " fill-opacity="1" fill-rule="nonzero"/></g></svg>