<svg xmlns="http://www.w3.org/2000/svg" xmlns:xlink="http://www.w3.org/1999/xlink" width="50" zoomAndPan="magnify" viewBox="0 0 37.5 37.499999" height="50" preserveAspectRatio="xMidYMid meet" version="1.0"><defs><clipPath id="052eb96ff5"><path d="M 1.960938 1.960938 L 35.265625 1.960938 L 35.265625 35.265625 L 1.960938 35.265625 Z M 1.960938 1.960938 " clip-rule="nonzero"/></clipPath></defs><g clip-path="url(#052eb96ff5)"><path fill="#000000" d="M 30.695312 14.394531 L 30.695312 10.484375 C 30.695312 9.027344 29.507812 7.839844 28.050781 7.839844 L 27.429688 7.839844 L 27.429688 2.613281 C 27.429688 2.253906 27.136719 1.960938 26.777344 1.960938 L 10.449219 1.960938 C 10.089844 1.960938 9.796875 2.253906 9.796875 2.613281 L 9.796875 7.839844 L 9.179688 7.839844 C 7.71875 7.839844 6.53125 9.027344 6.53125 10.484375 L 6.53125 14.394531 C 3.96875 14.660156 1.960938 16.832031 1.960938 19.464844 L 1.960938 26.253906 C 1.960938 29.0625 4.246094 31.347656 7.054688 31.347656 L 9.796875 31.347656 L 9.796875 34.613281 C 9.796875 34.976562 10.089844 35.265625 10.449219 35.265625 L 26.777344 35.265625 C 27.136719 35.265625 27.429688 34.976562 27.429688 34.613281 L 27.429688 31.347656 L 30.171875 31.347656 C 32.980469 31.347656 35.265625 29.0625 35.265625 26.253906 L 35.265625 19.464844 C 35.265625 16.832031 33.261719 14.660156 30.695312 14.394531 Z M 11.105469 3.265625 L 26.125 3.265625 L 26.125 14.371094 L 11.105469 14.371094 Z M 9.796875 27.316406 C 9.039062 27.046875 8.492188 26.324219 8.492188 25.472656 C 8.492188 24.621094 9.039062 23.894531 9.796875 23.625 Z M 24.164062 32.003906 L 13.0625 32.003906 C 12.703125 32.003906 12.410156 31.710938 12.410156 31.347656 C 12.410156 30.988281 12.703125 30.695312 13.0625 30.695312 L 24.164062 30.695312 C 24.527344 30.695312 24.816406 30.988281 24.816406 31.347656 C 24.816406 31.710938 24.527344 32.003906 24.164062 32.003906 Z M 24.164062 29.390625 L 13.0625 29.390625 C 12.703125 29.390625 12.410156 29.097656 12.410156 28.738281 C 12.410156 28.375 12.703125 28.082031 13.0625 28.082031 L 24.164062 28.082031 C 24.527344 28.082031 24.816406 28.375 24.816406 28.738281 C 24.816406 29.097656 24.527344 29.390625 24.164062 29.390625 Z M 24.164062 26.777344 L 13.0625 26.777344 C 12.703125 26.777344 12.410156 26.484375 12.410156 26.125 C 12.410156 25.765625 12.703125 25.472656 13.0625 25.472656 L 24.164062 25.472656 C 24.527344 25.472656 24.816406 25.765625 24.816406 26.125 C 24.816406 26.484375 24.527344 26.777344 24.164062 26.777344 Z M 33.960938 26.253906 C 33.960938 28.34375 32.261719 30.042969 30.171875 30.042969 L 27.429688 30.042969 L 27.429688 28.671875 C 28.917969 28.367188 30.042969 27.046875 30.042969 25.472656 C 30.042969 23.671875 28.578125 22.207031 26.777344 22.207031 L 10.449219 22.207031 C 8.652344 22.207031 7.1875 23.671875 7.1875 25.472656 C 7.1875 27.046875 8.308594 28.367188 9.796875 28.671875 L 9.796875 30.042969 L 7.054688 30.042969 C 4.964844 30.042969 3.265625 28.34375 3.265625 26.253906 L 3.265625 19.464844 C 3.265625 17.375 4.964844 15.675781 7.054688 15.675781 C 15.195312 15.675781 21.71875 15.675781 30.171875 15.675781 C 32.261719 15.675781 33.960938 17.375 33.960938 19.464844 Z M 27.429688 27.316406 L 27.429688 23.625 C 28.191406 23.894531 28.738281 24.621094 28.738281 25.472656 C 28.738281 26.324219 28.191406 27.046875 27.429688 27.316406 Z M 27.429688 27.316406 " fill-opacity="1" fill-rule="nonzero"/></g><path fill="#000000" d="M 7.824219 18.925781 C 7.824219 19.101562 7.761719 19.25 7.636719 19.375 C 7.511719 19.5 7.363281 19.5625 7.1875 19.5625 C 7.011719 19.5625 6.859375 19.5 6.734375 19.375 C 6.609375 19.25 6.550781 19.101562 6.550781 18.925781 C 6.550781 18.75 6.609375 18.597656 6.734375 18.476562 C 6.859375 18.351562 7.011719 18.289062 7.1875 18.289062 C 7.363281 18.289062 7.511719 18.351562 7.636719 18.476562 C 7.761719 18.597656 7.824219 18.75 7.824219 18.925781 Z M 7.824219 18.925781 " fill-opacity="1" fill-rule="nonzero"/><path fill="#000000" d="M 10.433594 18.925781 C 10.433594 19.101562 10.371094 19.25 10.246094 19.375 C 10.125 19.5 9.972656 19.5625 9.796875 19.5625 C 9.621094 19.5625 9.472656 19.5 9.347656 19.375 C 9.222656 19.25 9.160156 19.101562 9.160156 18.925781 C 9.160156 18.75 9.222656 18.597656 9.347656 18.476562 C 9.472656 18.351562 9.621094 18.289062 9.796875 18.289062 C 9.972656 18.289062 10.125 18.351562 10.246094 18.476562 C 10.371094 18.597656 10.433594 18.75 10.433594 18.925781 Z M 10.433594 18.925781 " fill-opacity="1" fill-rule="nonzero"/><path fill="#000000" d="M 13.046875 18.925781 C 13.046875 19.101562 12.984375 19.25 12.859375 19.375 C 12.734375 19.5 12.585938 19.5625 12.410156 19.5625 C 12.234375 19.5625 12.082031 19.5 11.957031 19.375 C 11.835938 19.25 11.773438 19.101562 11.773438 18.925781 C 11.773438 18.75 11.835938 18.597656 11.957031 18.476562 C 12.082031 18.351562 12.234375 18.289062 12.410156 18.289062 C 12.585938 18.289062 12.734375 18.351562 12.859375 18.476562 C 12.984375 18.597656 13.046875 18.75 13.046875 18.925781 Z M 13.046875 18.925781 " fill-opacity="1" fill-rule="nonzero"/></svg>