<svg xmlns="http://www.w3.org/2000/svg" xmlns:xlink="http://www.w3.org/1999/xlink" width="50" zoomAndPan="magnify" viewBox="0 0 37.5 37.499999" height="50" preserveAspectRatio="xMidYMid meet" version="1.0"><defs><clipPath id="9eba07d64e"><path d="M 5 1.40625 L 15 1.40625 L 15 11 L 5 11 Z M 5 1.40625 " clip-rule="nonzero"/></clipPath><clipPath id="551055080a"><path d="M 22 1.40625 L 32 1.40625 L 32 11 L 22 11 Z M 22 1.40625 " clip-rule="nonzero"/></clipPath><clipPath id="dd8fa86e20"><path d="M 23 10 L 35.453125 10 L 35.453125 22 L 23 22 Z M 23 10 " clip-rule="nonzero"/></clipPath><clipPath id="9af76ce1a6"><path d="M 7 22 L 30 22 L 30 35.453125 L 7 35.453125 Z M 7 22 " clip-rule="nonzero"/></clipPath><clipPath id="c89172bdc1"><path d="M 1.40625 10 L 14 10 L 14 22 L 1.40625 22 Z M 1.40625 10 " clip-rule="nonzero"/></clipPath></defs><path fill="#000000" d="M 13.109375 17.898438 C 13.109375 20.824219 15.503906 23.21875 18.429688 23.21875 C 21.355469 23.21875 23.75 20.824219 23.75 17.898438 C 23.75 14.972656 21.355469 12.578125 18.429688 12.578125 C 15.503906 12.578125 13.109375 14.972656 13.109375 17.898438 Z M 13.109375 17.898438 " fill-opacity="1" fill-rule="nonzero"/><g clip-path="url(#9eba07d64e)"><path fill="#000000" d="M 9.652344 10.449219 C 12.152344 10.449219 14.171875 8.429688 14.171875 5.929688 C 14.171875 3.425781 12.152344 1.40625 9.652344 1.40625 C 7.152344 1.40625 5.128906 3.425781 5.128906 5.929688 C 5.128906 8.429688 7.152344 10.449219 9.652344 10.449219 Z M 9.652344 10.449219 " fill-opacity="1" fill-rule="nonzero"/></g><g clip-path="url(#551055080a)"><path fill="#000000" d="M 27.207031 10.449219 C 29.707031 10.449219 31.726562 8.429688 31.726562 5.929688 C 31.726562 3.425781 29.707031 1.40625 27.207031 1.40625 C 24.707031 1.40625 22.683594 3.425781 22.683594 5.929688 C 22.683594 8.429688 24.707031 10.449219 27.207031 10.449219 Z M 27.207031 10.449219 " fill-opacity="1" fill-rule="nonzero"/></g><path fill="#000000" d="M 11.355469 11.246094 L 12.789062 11.246094 C 13.882812 11.246094 14.8125 11.59375 15.503906 12.230469 C 15.847656 12.046875 16.195312 11.914062 16.566406 11.804688 C 15.769531 10.875 14.625 10.316406 13.242188 10.210938 C 12.683594 10.664062 12.046875 11.035156 11.355469 11.246094 Z M 11.355469 11.246094 " fill-opacity="1" fill-rule="nonzero"/><path fill="#000000" d="M 24.066406 11.246094 L 25.503906 11.246094 C 24.8125 11.035156 24.175781 10.664062 23.617188 10.210938 C 22.257812 10.316406 21.117188 10.875 20.292969 11.804688 C 20.664062 11.914062 21.007812 12.070312 21.355469 12.230469 C 22.046875 11.59375 22.976562 11.246094 24.066406 11.246094 Z M 24.066406 11.246094 " fill-opacity="1" fill-rule="nonzero"/><g clip-path="url(#dd8fa86e20)"><path fill="#000000" d="M 30.796875 10.210938 C 30.238281 10.664062 29.601562 11.035156 28.910156 11.246094 L 30.34375 11.246094 C 32.820312 11.246094 34.386719 13.003906 34.386719 15.742188 L 34.386719 19.574219 C 34.386719 19.972656 34.097656 20.292969 33.75 20.292969 L 24.335938 20.292969 C 24.175781 20.664062 23.988281 21.007812 23.777344 21.355469 L 33.722656 21.355469 C 34.65625 21.355469 35.425781 20.558594 35.425781 19.574219 L 35.425781 15.742188 C 35.453125 12.578125 33.589844 10.421875 30.796875 10.210938 Z M 30.796875 10.210938 " fill-opacity="1" fill-rule="nonzero"/></g><g clip-path="url(#9af76ce1a6)"><path fill="#000000" d="M 13.960938 23.21875 L 14.917969 23.21875 C 14.464844 22.925781 14.066406 22.550781 13.695312 22.152344 C 10.15625 22.285156 7.789062 24.679688 7.789062 28.21875 L 7.789062 33.777344 C 7.789062 34.707031 8.5625 35.453125 9.519531 35.453125 L 27.339844 35.453125 C 28.296875 35.453125 29.070312 34.707031 29.070312 33.777344 L 29.070312 28.21875 C 29.070312 24.679688 26.703125 22.285156 23.164062 22.152344 C 22.792969 22.550781 22.390625 22.898438 21.941406 23.21875 L 22.898438 23.21875 C 25.984375 23.21875 27.976562 25.183594 27.976562 28.21875 L 27.976562 33.777344 C 27.976562 34.121094 27.683594 34.386719 27.3125 34.386719 L 9.492188 34.386719 C 9.121094 34.386719 8.828125 34.121094 8.828125 33.777344 L 8.828125 28.21875 C 8.855469 25.183594 10.847656 23.21875 13.960938 23.21875 Z M 13.960938 23.21875 " fill-opacity="1" fill-rule="nonzero"/></g><path fill="#000000" d="M 18.429688 32.261719 C 18.695312 32.261719 18.933594 32.152344 19.121094 31.96875 L 20.398438 30.878906 L 20.449219 30.824219 C 20.742188 30.503906 20.902344 29.917969 20.796875 29.441406 L 19.785156 24.121094 C 19.625 24.148438 19.464844 24.175781 19.28125 24.199219 C 19.253906 24.199219 19.253906 24.199219 19.226562 24.199219 C 19.066406 24.226562 18.882812 24.226562 18.722656 24.253906 C 18.617188 24.253906 18.535156 24.253906 18.429688 24.253906 C 17.925781 24.253906 17.417969 24.199219 16.941406 24.066406 L 16.035156 29.441406 C 15.957031 29.917969 16.113281 30.476562 16.40625 30.796875 L 17.710938 31.941406 C 17.925781 32.152344 18.191406 32.261719 18.429688 32.261719 Z M 18.429688 32.261719 " fill-opacity="1" fill-rule="nonzero"/><g clip-path="url(#c89172bdc1)"><path fill="#000000" d="M 3.109375 21.355469 L 13.054688 21.355469 C 12.84375 21.007812 12.65625 20.664062 12.496094 20.292969 L 3.109375 20.292969 C 2.761719 20.292969 2.46875 19.972656 2.46875 19.574219 L 2.46875 15.742188 C 2.46875 13.003906 4.066406 11.246094 6.511719 11.246094 L 7.949219 11.246094 C 7.761719 11.195312 7.605469 11.113281 7.445312 11.0625 C 6.9375 10.847656 6.488281 10.554688 6.0625 10.210938 C 3.269531 10.421875 1.40625 12.578125 1.40625 15.742188 L 1.40625 19.574219 C 1.40625 20.558594 2.175781 21.355469 3.109375 21.355469 Z M 3.109375 21.355469 " fill-opacity="1" fill-rule="nonzero"/></g><path fill="#000000" d="M 10.371094 11.460938 C 10.183594 11.488281 10.023438 11.488281 9.839844 11.511719 C 9.785156 11.511719 9.703125 11.511719 9.652344 11.511719 C 9.359375 11.511719 9.09375 11.488281 8.800781 11.433594 C 8.613281 11.40625 8.453125 11.378906 8.296875 11.328125 L 7.550781 15.714844 C 7.496094 16.140625 7.628906 16.648438 7.894531 16.941406 L 9.039062 17.898438 C 9.199219 18.058594 9.4375 18.164062 9.679688 18.164062 C 9.917969 18.164062 10.15625 18.058594 10.316406 17.898438 L 11.40625 16.992188 L 11.460938 16.941406 C 11.726562 16.648438 11.859375 16.140625 11.78125 15.714844 L 10.929688 11.378906 C 10.714844 11.40625 10.554688 11.433594 10.371094 11.460938 Z M 10.371094 11.460938 " fill-opacity="1" fill-rule="nonzero"/><path fill="#000000" d="M 27.394531 11.511719 C 27.339844 11.511719 27.261719 11.511719 27.207031 11.511719 C 26.914062 11.511719 26.648438 11.488281 26.355469 11.433594 C 26.167969 11.40625 26.011719 11.378906 25.851562 11.328125 L 25.105469 15.714844 C 25.050781 16.140625 25.183594 16.648438 25.453125 16.941406 L 26.59375 17.898438 C 26.753906 18.058594 26.992188 18.164062 27.234375 18.164062 C 27.472656 18.164062 27.710938 18.058594 27.871094 17.898438 L 28.960938 16.992188 L 29.015625 16.941406 C 29.28125 16.648438 29.414062 16.140625 29.335938 15.714844 L 28.484375 11.378906 C 28.324219 11.40625 28.136719 11.460938 27.953125 11.460938 C 27.765625 11.488281 27.578125 11.488281 27.394531 11.511719 Z M 27.394531 11.511719 " fill-opacity="1" fill-rule="nonzero"/></svg>