<svg xmlns="http://www.w3.org/2000/svg" xmlns:xlink="http://www.w3.org/1999/xlink" width="50" zoomAndPan="magnify" viewBox="0 0 37.5 37.499999" height="50" preserveAspectRatio="xMidYMid meet" version="1.0"><defs><clipPath id="1981d5d123"><path d="M 0.882812 16 L 36.410156 16 L 36.410156 34.25 L 0.882812 34.25 Z M 0.882812 16 " clip-rule="nonzero"/></clipPath><clipPath id="45c7c1f104"><path d="M 3 2.425781 L 22 2.425781 L 22 15 L 3 15 Z M 3 2.425781 " clip-rule="nonzero"/></clipPath></defs><g clip-path="url(#1981d5d123)"><path fill="#000000" d="M 36.335938 16.191406 L 0.960938 16.191406 L 0.960938 19.085938 L 3.90625 19.085938 L 3.90625 34.28125 L 6.117188 34.28125 L 7.222656 21.253906 L 30.070312 21.253906 L 31.175781 34.28125 L 33.386719 34.28125 L 33.386719 19.085938 L 36.335938 19.085938 Z M 36.335938 16.191406 " fill-opacity="1" fill-rule="nonzero"/></g><g clip-path="url(#45c7c1f104)"><path fill="#000000" d="M 13.625 5.378906 L 14.226562 2.441406 L 11.277344 2.441406 L 11.875 5.378906 C 7.402344 5.808594 3.90625 9.511719 3.90625 14.019531 L 21.597656 14.019531 C 21.597656 9.511719 18.101562 5.808594 13.625 5.378906 Z M 13.625 5.378906 " fill-opacity="1" fill-rule="nonzero"/></g><path fill="#000000" d="M 33.386719 14.019531 L 34.863281 8.230469 L 23.070312 8.230469 L 24.542969 14.019531 Z M 33.386719 14.019531 " fill-opacity="1" fill-rule="nonzero"/></svg>