<svg xmlns="http://www.w3.org/2000/svg" xmlns:xlink="http://www.w3.org/1999/xlink" width="50" zoomAndPan="magnify" viewBox="0 0 37.5 37.499999" height="50" preserveAspectRatio="xMidYMid meet" version="1.0"><defs><clipPath id="e92ebc7f90"><path d="M 3 18 L 35 18 L 35 35.097656 L 3 35.097656 Z M 3 18 " clip-rule="nonzero"/></clipPath><clipPath id="f71907d36b"><path d="M 1.621094 1.792969 L 35.667969 1.792969 L 35.667969 21 L 1.621094 21 Z M 1.621094 1.792969 " clip-rule="nonzero"/></clipPath></defs><g clip-path="url(#e92ebc7f90)"><path fill="#000000" d="M 21.933594 18.792969 C 21.699219 18.792969 21.523438 18.890625 21.40625 19.09375 L 19.996094 21.503906 C 19.761719 21.90625 19.40625 22.109375 18.9375 22.109375 C 18.464844 22.109375 18.113281 21.90625 17.878906 21.503906 L 16.46875 19.09375 C 16.351562 18.890625 16.175781 18.792969 15.9375 18.792969 L 4.605469 18.792969 C 4.441406 18.792969 4.285156 18.824219 4.136719 18.882812 C 3.988281 18.945312 3.855469 19.035156 3.742188 19.148438 C 3.625 19.261719 3.539062 19.390625 3.476562 19.539062 C 3.414062 19.6875 3.382812 19.839844 3.382812 20 L 3.382812 33.875 C 3.382812 34.035156 3.414062 34.1875 3.476562 34.335938 C 3.539062 34.484375 3.625 34.617188 3.742188 34.730469 C 3.855469 34.84375 3.988281 34.929688 4.136719 34.992188 C 4.285156 35.050781 4.441406 35.082031 4.605469 35.082031 L 15.9375 35.082031 C 16.175781 35.082031 16.351562 34.984375 16.46875 34.78125 L 17.878906 32.371094 C 18.113281 31.96875 18.464844 31.769531 18.9375 31.769531 C 19.40625 31.769531 19.761719 31.96875 19.996094 32.371094 L 21.40625 34.78125 C 21.523438 34.984375 21.699219 35.082031 21.933594 35.082031 L 33.265625 35.082031 C 33.429688 35.082031 33.585938 35.050781 33.734375 34.992188 C 33.886719 34.929688 34.019531 34.84375 34.132812 34.730469 C 34.246094 34.617188 34.335938 34.484375 34.398438 34.335938 C 34.460938 34.1875 34.492188 34.035156 34.492188 33.875 L 34.492188 20 C 34.492188 19.839844 34.460938 19.6875 34.398438 19.539062 C 34.335938 19.390625 34.246094 19.261719 34.132812 19.148438 C 34.019531 19.035156 33.886719 18.945312 33.734375 18.882812 C 33.585938 18.824219 33.429688 18.792969 33.265625 18.792969 Z M 11.875 30.050781 C 11.636719 30.207031 11.378906 30.3125 11.097656 30.363281 L 11.097656 31.367188 C 11.097656 31.535156 11.035156 31.679688 10.917969 31.796875 C 10.796875 31.914062 10.652344 31.972656 10.484375 31.972656 C 10.316406 31.972656 10.171875 31.914062 10.050781 31.796875 C 9.933594 31.679688 9.871094 31.535156 9.871094 31.367188 L 9.871094 30.371094 C 9.480469 30.316406 9.097656 30.222656 8.726562 30.089844 C 8.566406 30.03125 8.453125 29.925781 8.382812 29.773438 C 8.3125 29.621094 8.304688 29.46875 8.367188 29.3125 C 8.425781 29.15625 8.53125 29.042969 8.683594 28.972656 C 8.839844 28.902344 8.996094 28.898438 9.152344 28.957031 C 9.585938 29.109375 10.027344 29.191406 10.484375 29.210938 L 10.511719 29.210938 C 10.75 29.226562 10.972656 29.175781 11.179688 29.058594 C 11.238281 29.015625 11.417969 28.894531 11.417969 28.429688 C 11.417969 27.921875 11.070312 27.730469 10.210938 27.394531 C 9.417969 27.078125 8.328125 26.652344 8.328125 25.375 C 8.289062 24.746094 8.527344 24.242188 9.039062 23.859375 C 9.289062 23.683594 9.570312 23.570312 9.871094 23.519531 L 9.871094 22.507812 C 9.871094 22.339844 9.933594 22.199219 10.050781 22.078125 C 10.171875 21.960938 10.316406 21.902344 10.484375 21.902344 C 10.652344 21.902344 10.796875 21.960938 10.917969 22.078125 C 11.035156 22.199219 11.097656 22.339844 11.097656 22.507812 L 11.097656 23.488281 C 11.445312 23.53125 11.789062 23.601562 12.125 23.707031 C 12.285156 23.757812 12.40625 23.855469 12.480469 24.003906 C 12.558594 24.152344 12.570312 24.308594 12.519531 24.46875 C 12.46875 24.625 12.367188 24.742188 12.21875 24.820312 C 12.066406 24.898438 11.910156 24.910156 11.75 24.859375 C 11.347656 24.738281 10.933594 24.671875 10.511719 24.664062 L 10.484375 24.664062 C 10.226562 24.648438 9.984375 24.707031 9.757812 24.835938 C 9.703125 24.878906 9.550781 24.988281 9.550781 25.375 C 9.550781 25.769531 9.816406 25.933594 10.664062 26.269531 C 11.5 26.597656 12.640625 27.050781 12.640625 28.429688 C 12.664062 28.746094 12.605469 29.046875 12.472656 29.335938 C 12.335938 29.625 12.136719 29.863281 11.875 30.050781 Z M 19.546875 30.332031 C 19.546875 30.496094 19.488281 30.640625 19.367188 30.757812 C 19.25 30.875 19.105469 30.933594 18.9375 30.933594 C 18.765625 30.933594 18.625 30.875 18.503906 30.757812 C 18.382812 30.640625 18.324219 30.496094 18.324219 30.332031 L 18.324219 29.574219 C 18.324219 29.40625 18.382812 29.265625 18.503906 29.148438 C 18.625 29.03125 18.765625 28.96875 18.9375 28.96875 C 19.105469 28.96875 19.25 29.03125 19.367188 29.148438 C 19.488281 29.265625 19.546875 29.40625 19.546875 29.574219 Z M 19.546875 27.816406 C 19.546875 27.984375 19.488281 28.125 19.367188 28.242188 C 19.25 28.363281 19.105469 28.421875 18.9375 28.421875 C 18.765625 28.421875 18.625 28.363281 18.503906 28.242188 C 18.382812 28.125 18.324219 27.984375 18.324219 27.816406 L 18.324219 26.058594 C 18.324219 25.890625 18.382812 25.75 18.503906 25.632812 C 18.625 25.511719 18.765625 25.453125 18.9375 25.453125 C 19.105469 25.453125 19.25 25.511719 19.367188 25.632812 C 19.488281 25.75 19.546875 25.890625 19.546875 26.058594 Z M 19.546875 24.300781 C 19.546875 24.46875 19.488281 24.609375 19.367188 24.726562 C 19.25 24.847656 19.105469 24.90625 18.9375 24.90625 C 18.765625 24.90625 18.625 24.847656 18.503906 24.726562 C 18.382812 24.609375 18.324219 24.46875 18.324219 24.300781 L 18.324219 23.542969 C 18.324219 23.378906 18.382812 23.234375 18.503906 23.117188 C 18.625 23 18.765625 22.941406 18.9375 22.941406 C 19.105469 22.941406 19.25 23 19.367188 23.117188 C 19.488281 23.234375 19.546875 23.378906 19.546875 23.542969 Z M 30.523438 30.929688 L 24.066406 30.929688 C 23.898438 30.929688 23.753906 30.871094 23.632812 30.753906 C 23.511719 30.632812 23.453125 30.492188 23.453125 30.324219 C 23.453125 30.15625 23.511719 30.015625 23.632812 29.898438 C 23.753906 29.777344 23.898438 29.71875 24.066406 29.71875 L 30.523438 29.71875 C 30.691406 29.71875 30.835938 29.777344 30.953125 29.898438 C 31.074219 30.015625 31.132812 30.15625 31.132812 30.324219 C 31.132812 30.492188 31.074219 30.632812 30.953125 30.753906 C 30.835938 30.871094 30.691406 30.929688 30.523438 30.929688 Z M 30.523438 27.542969 L 24.066406 27.542969 C 23.898438 27.542969 23.753906 27.484375 23.632812 27.363281 C 23.511719 27.246094 23.453125 27.105469 23.453125 26.9375 C 23.453125 26.769531 23.511719 26.628906 23.632812 26.511719 C 23.753906 26.390625 23.898438 26.332031 24.066406 26.332031 L 30.523438 26.332031 C 30.691406 26.332031 30.835938 26.390625 30.953125 26.511719 C 31.074219 26.628906 31.132812 26.769531 31.132812 26.9375 C 31.132812 27.105469 31.074219 27.246094 30.953125 27.363281 C 30.835938 27.484375 30.691406 27.542969 30.523438 27.542969 Z M 30.523438 24.15625 L 24.066406 24.15625 C 23.898438 24.15625 23.753906 24.097656 23.632812 23.976562 C 23.511719 23.859375 23.453125 23.71875 23.453125 23.550781 C 23.453125 23.382812 23.511719 23.242188 23.632812 23.125 C 23.753906 23.003906 23.898438 22.945312 24.066406 22.945312 L 30.523438 22.945312 C 30.691406 22.945312 30.835938 23.003906 30.953125 23.125 C 31.074219 23.242188 31.132812 23.382812 31.132812 23.550781 C 31.132812 23.71875 31.074219 23.859375 30.953125 23.976562 C 30.835938 24.097656 30.691406 24.15625 30.523438 24.15625 Z M 30.523438 24.15625 " fill-opacity="1" fill-rule="nonzero"/></g><g clip-path="url(#f71907d36b)"><path fill="#000000" d="M 27.285156 2.46875 C 27.191406 2.335938 27.074219 2.230469 26.9375 2.144531 C 26.800781 2.058594 26.652344 2 26.492188 1.972656 C 26.332031 1.949219 26.171875 1.953125 26.015625 1.988281 C 25.855469 2.023438 25.710938 2.085938 25.578125 2.175781 L 16.324219 8.640625 C 16.128906 8.773438 16.042969 8.953125 16.066406 9.1875 L 16.324219 11.957031 C 16.332031 12.0625 16.328125 12.167969 16.3125 12.273438 C 16.292969 12.378906 16.261719 12.476562 16.214844 12.574219 C 16.171875 12.671875 16.113281 12.757812 16.046875 12.839844 C 15.976562 12.921875 15.898438 12.992188 15.8125 13.054688 C 15.722656 13.117188 15.628906 13.164062 15.527344 13.203125 C 15.425781 13.238281 15.324219 13.261719 15.21875 13.273438 C 15.109375 13.28125 15.003906 13.277344 14.898438 13.261719 C 14.792969 13.242188 14.691406 13.210938 14.59375 13.167969 L 12.035156 12 C 11.820312 11.902344 11.617188 11.921875 11.425781 12.054688 L 2.171875 18.515625 C 2.039062 18.609375 1.925781 18.722656 1.839844 18.859375 C 1.753906 18.992188 1.695312 19.140625 1.667969 19.296875 C 1.640625 19.457031 1.644531 19.613281 1.683594 19.769531 C 1.71875 19.925781 1.78125 20.070312 1.875 20.199219 L 2.15625 20.59375 L 2.15625 20 C 2.15625 19.679688 2.21875 19.371094 2.34375 19.074219 C 2.46875 18.78125 2.644531 18.519531 2.875 18.292969 C 3.105469 18.066406 3.367188 17.890625 3.667969 17.765625 C 3.96875 17.644531 4.28125 17.582031 4.605469 17.582031 L 15.9375 17.582031 C 16.265625 17.582031 16.574219 17.664062 16.855469 17.828125 C 17.140625 17.988281 17.363281 18.210938 17.53125 18.488281 L 18.804688 20.671875 C 18.832031 20.722656 18.878906 20.746094 18.9375 20.746094 C 18.996094 20.746094 19.039062 20.722656 19.070312 20.671875 L 20.34375 18.488281 C 20.507812 18.210938 20.730469 17.988281 21.015625 17.828125 C 21.300781 17.664062 21.605469 17.582031 21.933594 17.582031 L 32.109375 17.582031 C 32.132812 17.554688 35.089844 15.484375 35.089844 15.484375 C 35.222656 15.394531 35.332031 15.28125 35.421875 15.144531 C 35.507812 15.007812 35.5625 14.863281 35.59375 14.703125 C 35.621094 14.546875 35.617188 14.390625 35.578125 14.234375 C 35.542969 14.078125 35.476562 13.933594 35.382812 13.800781 Z M 16.589844 15.195312 L 16.148438 14.578125 C 16.050781 14.441406 16.015625 14.292969 16.046875 14.125 C 16.074219 13.960938 16.15625 13.832031 16.296875 13.734375 C 16.433594 13.640625 16.585938 13.605469 16.753906 13.632812 C 16.917969 13.660156 17.050781 13.742188 17.148438 13.878906 L 17.589844 14.496094 C 17.6875 14.632812 17.722656 14.785156 17.695312 14.949219 C 17.664062 15.113281 17.582031 15.246094 17.445312 15.339844 C 17.304688 15.433594 17.152344 15.464844 16.988281 15.4375 C 16.824219 15.410156 16.691406 15.328125 16.589844 15.195312 Z M 19.496094 18.210938 C 19.355469 18.296875 19.207031 18.324219 19.042969 18.296875 C 18.878906 18.269531 18.746094 18.195312 18.644531 18.066406 L 17.617188 16.632812 C 17.519531 16.496094 17.484375 16.34375 17.515625 16.179688 C 17.542969 16.015625 17.625 15.886719 17.765625 15.789062 C 17.902344 15.691406 18.054688 15.660156 18.222656 15.6875 C 18.386719 15.714844 18.519531 15.796875 18.617188 15.933594 L 19.644531 17.371094 C 19.742188 17.507812 19.777344 17.65625 19.746094 17.820312 C 19.71875 17.988281 19.636719 18.117188 19.496094 18.210938 Z M 21.195312 11.804688 C 21.054688 11.898438 20.90625 11.929688 20.738281 11.902344 C 20.574219 11.875 20.441406 11.792969 20.34375 11.660156 C 20.246094 11.523438 20.210938 11.371094 20.238281 11.207031 C 20.269531 11.042969 20.351562 10.914062 20.488281 10.816406 L 25.761719 7.136719 C 25.902344 7.046875 26.050781 7.019531 26.210938 7.046875 C 26.375 7.078125 26.503906 7.160156 26.597656 7.292969 C 26.691406 7.425781 26.726562 7.574219 26.703125 7.734375 C 26.675781 7.894531 26.601562 8.023438 26.46875 8.121094 Z M 22.820312 14.679688 C 22.523438 14.683594 22.328125 14.542969 22.238281 14.261719 C 22.148438 13.980469 22.222656 13.753906 22.46875 13.582031 L 27.742188 9.902344 C 27.878906 9.804688 28.03125 9.773438 28.199219 9.800781 C 28.363281 9.828125 28.496094 9.910156 28.59375 10.046875 C 28.691406 10.183594 28.726562 10.335938 28.699219 10.5 C 28.667969 10.664062 28.585938 10.792969 28.449219 10.890625 L 23.171875 14.570312 C 23.066406 14.644531 22.949219 14.679688 22.820312 14.679688 Z M 30.425781 13.65625 L 25.148438 17.335938 C 25.007812 17.417969 24.859375 17.449219 24.695312 17.421875 C 24.535156 17.390625 24.402344 17.316406 24.296875 17.191406 C 24.195312 17.054688 24.160156 16.90625 24.191406 16.738281 C 24.21875 16.574219 24.304688 16.445312 24.445312 16.351562 L 29.71875 12.667969 C 29.855469 12.574219 30.007812 12.539062 30.175781 12.566406 C 30.339844 12.59375 30.472656 12.675781 30.570312 12.8125 C 30.667969 12.949219 30.703125 13.101562 30.675781 13.265625 C 30.644531 13.429688 30.5625 13.558594 30.425781 13.65625 Z M 30.425781 13.65625 " fill-opacity="1" fill-rule="nonzero"/></g></svg>